<?xml version="1.0" encoding="UTF-8" standalone="no"?>
<svg
   xmlns:dc="http://purl.org/dc/elements/1.1/"
   xmlns:cc="http://creativecommons.org/ns#"
   xmlns:rdf="http://www.w3.org/1999/02/22-rdf-syntax-ns#"
   xmlns:svg="http://www.w3.org/2000/svg"
   xmlns="http://www.w3.org/2000/svg"
   xmlns:sodipodi="http://sodipodi.sourceforge.net/DTD/sodipodi-0.dtd"
   xmlns:inkscape="http://www.inkscape.org/namespaces/inkscape"
   inkscape:version="1.0beta1 (32d4812, 2019-09-19)"
   sodipodi:docname="Twirl.svg"
   id="svg26"
   preserveAspectRatio="xMidYMid meet"
   viewBox="0 0 750.00002 750.00002"
   height="1000"
   width="1000"
   version="1.0">
  <defs
     id="defs30" />
  <sodipodi:namedview
     inkscape:current-layer="svg26"
     inkscape:window-maximized="0"
     inkscape:window-y="23"
     inkscape:window-x="0"
     inkscape:cy="925.71429"
     inkscape:cx="405.71429"
     inkscape:zoom="0.175"
     units="px"
     showgrid="false"
     id="namedview28"
     inkscape:window-height="855"
     inkscape:window-width="1440"
     inkscape:pageshadow="2"
     inkscape:pageopacity="0"
     guidetolerance="10"
     gridtolerance="10"
     objecttolerance="10"
     borderopacity="1"
     inkscape:document-rotation="0"
     bordercolor="#666666"
     pagecolor="#ffffff" />
  <metadata
     id="metadata10">
Created by potrace 1.15, written by Peter Selinger 2001-2017
<rdf:RDF>
  <cc:Work
     rdf:about="">
    <dc:format>image/svg+xml</dc:format>
    <dc:type
       rdf:resource="http://purl.org/dc/dcmitype/StillImage" />
    <dc:title></dc:title>
  </cc:Work>
</rdf:RDF>
</metadata>
  <rect
     y="0"
     x="0"
     height="750"
     width="750"
     id="rect172"
     style="fill:#484848;fill-opacity:1;stroke:none;stroke-width:7.85156" />
  <g
     transform="matrix(0.82846422,0,0,0.82848125,-588.4355,-400.36543)"
     id="g152">
    <path
       style="opacity:1;fill:#000000;stroke:none;stroke-width:0.1;stop-opacity:1"
       inkscape:connector-curvature="0"
       id="path12"
       d="m 1091.8572,296.4143 c -31.9,3.5 -70.4,11 -102.00004,19.9 -25.8,7.3 -65.1,21 -67.6,23.7 -1.5,1.6 -18.4,50.3 -23.4,67.2 -10.7,36.7 -13.9,69.7 -12,123.5 2.1,56.9 6.6,89.6 18.9,137.5 13.8,53.5 30.4,98.7 57.6,157.5 3.7,8 8,17.6 9.6,21.3 l 2.8,6.8 -2.6,1 c -4.1,1.5 -18.5,4.6 -35.3,7.4 -60.2,10.1 -88.1,15.8 -211.5,43 -103.2,22.8 -157.7,37 -190,49.4 l -13,5 0.3,9.3 c 0.3,9.8 3,38.9 3.7,39.6 0.2,0.2 12,-3.9 26.2,-9.1 85,-31.4 160,-54.3 274.8,-84.2 37.8,-9.8 156,-39.5 157.4,-39.5 1.4,0 8.1,12.5 8.1,15.2 0,2.5 -0.6,2.9 -9.2,5.6 -5.1,1.6 -15.6,4.6 -23.3,6.6 -7.7,2 -21.6,5.6 -31,8 -42.6,11.2 -183.8,56.6 -235.5,75.8 -75.1,27.9 -160,66.3 -160,72.4 0,3.1 10.6,49.2 11.6,50.3 0.2,0.2 9.7,-5.4 21.1,-12.4 51,-31.4 84.6,-48.9 137.8,-71.7 73.2,-31.5 197.7,-76.7 258,-93.8 25.7,-7.3 36,-10.8 38.00004,-13 1.5,-1.7 1.7,-3.2 1.2,-10.7 -0.9,-13.6 -5.70004,-35.8 -23.60004,-108.3 -15.3,-62.2 -18.9,-80.3 -21,-104.5 -1.4,-15.5 -1.4,-94.4 -0.1,-111.1 3.1,-38.6 19.2,-90.7 42.50004,-137.9 16.2,-32.8 30.9,-56.1 57.5,-91.5 12.9,-17.2 41,-57.2 41,-58.5 0,-0.5 -0.8,-0.5 -7,0.2 z" />
    <path
       style="opacity:1;fill:#000000;stroke:none;stroke-width:0.1;stop-opacity:1"
       inkscape:connector-curvature="0"
       id="path14"
       d="m 1289.3572,307.6143 c -10.4,4.7 -53.3,32.2 -73.3,46.8 -75,55.1 -131.6,120.1 -167.6,192.3 -19.2,38.6 -30.5,72.2 -39.5,117.5 -5.4,27.1 -5.6,30.7 -5.6,101 0.1,71.2 0,69.8 7,120.5 4.4,32.5 5.9,46.4 5.1,49.4 -0.5,1.9 -1.4,2.6 -4.7,3.1 -16.60004,2.8 -119.00004,43.7 -184.00004,73.6 -13.1,6 -26.3,11.9 -29.1,13 -6.3,2.4 -64.3,31.9 -95.8,48.6 -51.8,27.5 -79.8,45 -113.6,71 -18.3,14 -23.8,19.5 -22.8,22.7 1.3,4.3 15.6,37 19.7,45.2 l 4.4,8.7 5.5,-7.4 c 12.9,-17.4 51.1,-55.7 72.9,-73.1 55.2,-44 151.6,-96.4 261.9,-142.3 37.6,-15.7 84.50004,-33.4 85.50004,-32.3 0.6,0.6 2.8,24.9 2.2,25.4 -0.2,0.2 -9.8,4 -21.30004,8.3 -95.5,35.9 -178.2,77.8 -252.3,127.8 -45.9,31 -71.4,52.9 -89.2,76.6 -17.2,22.9 -25,42.8 -27.1,68.8 l -1.1,13.6 7.8,11.4 c 17.7,25.9 37.7,51 60.2,75.4 l 12,13.1 9.4,3.2 c 38.2,13 94.4,14.5 151.5,4.2 82.5,-15 168.70004,-63.1 234.90004,-131.1 51.1,-52.5 79.7,-102.8 146.5,-257.9 28.6,-66.2 39.8,-89.4 58,-119.5 30.7,-50.8 69.5,-93.2 109.2,-119.2 27.9,-18.3 53.9,-23.8 47.3,-10 -7.2,15.3 -64.6,63.1 -92.6,77.2 -10.8,5.5 -12.4,4.6 -8,-3.9 1.7,-3.1 2.5,-5.6 2,-5.6 -2.2,0 -22,21.7 -32.3,35.4 -13.9,18.4 -26.1,41.2 -37,68.7 -7.8,20 -25.3,71.8 -45,133.9 -21.7,68.4 -28.7,87 -44.6,119.5 -23.5,48 -52.1,88.4 -89.9,126.8 -76.2,77.5 -173.00004,125.8 -274.60004,136.9 -6.7,0.7 -23.5,1.3 -38.2,1.3 -14.5,0 -26.3,0.2 -26.3,0.5 0,0.7 27,19.7 38.9,27.5 15.2,9.8 36.5,22.1 54.5,31.5 l 15.7,8.2 8.7,-3.2 c 137.70004,-51.7 203.50004,-92.1 261.90004,-160.7 22,-25.8 47.7,-64.8 61.7,-93.8 19.9,-40.9 28.8,-69 55.6,-175 31.9,-126.2 39,-152.3 40.9,-151 0.5,0.2 0.4,3 -0.1,6.2 -1.5,9.4 1.3,9.8 19.1,2.9 42.2,-16.3 125.4,-63.4 181.9,-102.8 39.6,-27.7 67.3,-53.2 83,-76.5 5.3,-7.9 14.5,-26.2 16.5,-32.9 3.7,-12.5 2.9,-39.7 -1.4,-48.8 -2.5,-5.3 -8.4,-11.4 -16.2,-16.6 -12.7,-8.5 -25,-11 -55.1,-11 -29.2,0 -46.3,2.4 -70.4,9.7 -92.9,28.1 -189.9,106.2 -255.7,205.8 -14.8,22.4 -23.9,39.1 -58,106 -19.3,38 -33.8,65.4 -42,80 -71.9,127.2 -139.20004,193.6 -225.90004,223 -18,6.1 -29.8,8.5 -45.1,9.2 -20.2,0.8 -34.2,-3 -43.9,-11.8 -7.5,-6.8 -10.1,-12.4 -9.9,-21.4 0.3,-16.8 11.6,-35.9 35.3,-59.5 17.7,-17.8 33.5,-30.1 62,-48.2 36.8,-23.4 109.9,-63.8 121.80004,-67.3 5.5,-1.6 1.1,10.1 -8.1,21.5 -6.20004,7.7 -19.20004,16.8 -43.40004,30.4 -8.7,4.9 -20.5,11.6 -26.3,14.9 -14.1,8 -42.5,26.9 -53,35.3 -25.1,20.2 -42.3,42.8 -44.8,58.9 -1.7,10.8 1,17.3 8.6,20.8 4,1.8 6.5,2.1 15.7,2 24.7,-0.2 51,-9.5 74.5,-26.3 32.8,-23.5 66.80004,-55.3 89.90004,-84.3 30.1,-37.8 49.1,-70.5 98.3,-169.7 58.5,-117.7 71.9,-141.7 100.8,-180.5 45.7,-61.5 105.8,-111.4 176.7,-146.8 37.3,-18.7 85.4,-35.1 117.3,-40.1 15.2,-2.4 43.2,-3.9 58,-3.2 37.1,1.8 70.2,15.7 85.7,36.1 8.9,11.7 14.3,27.4 14.3,41.9 0,16.4 -13,52.6 -26.3,72.8 -22.4,34.5 -69.6,74 -135.6,113.7 -45.8,27.6 -118.7,64 -183.3,91.6 l -20.7,8.9 -1.5,8.5 c -3.3,18.3 -10.8,76.2 -17.1,132.6 -11.9,105.7 -19.6,145.9 -34.5,181 -10.6,25 -30.6,61.4 -44.9,81.5 -18,25.5 -48.8,57.8 -74.6,78.4 -19.1,15.2 -45,33.4 -59.5,41.8 -26.1,15.2 -68.7,35.4 -96.40004,45.8 -5.4,2 -9.5,3.9 -9,4.2 3.2,1.8 43.00004,12 60.90004,15.7 25.4,5.1 59,9.7 85.1,11.6 l 9.1,0.7 13.9,-10.5 c 51.7,-38.9 92.9,-85.5 122.6,-138.5 23,-41 44.1,-99.7 51.8,-143.7 4.1,-23.8 5.2,-36.7 5.7,-67.5 0.6,-32.8 -0.2,-48.9 -4.2,-88.5 -4.3,-43 -6.5,-79.4 -6.5,-109 v -16 l 15.8,-5.4 c 39.7,-13.6 99.8,-39.9 159.2,-69.6 84.4,-42.2 131.1,-74.7 186.1,-129.5 22.2,-22.2 33.2,-34.9 43.8,-50.5 12.9,-19.2 19.6,-34.1 23.7,-52.8 1.3,-6.2 3,-13.7 3.9,-16.7 0.8,-3 1.5,-7 1.5,-8.8 0,-6.4 -26.3,-55.8 -45.2,-84.9 -7.6,-11.7 -8.3,-12.4 -14.1,-15.3 -10.8,-5.2 -43.6,-12.3 -69.7,-15.1 -14.9,-1.6 -53.1,-1.6 -68.5,0 -58.9,6.1 -130.6,31.9 -193,69.4 -39.2,23.6 -73.4,50.6 -107.5,84.7 -64.2,64.3 -97.9,118.3 -138.6,221.5 -24.2,61.4 -28.1,70.9 -35.6,87.9 -9.8,22.2 -31.3,65.9 -40.3,82.1 -9,16 -19.4,31.8 -27.7,42.4 -36.00004,45.2 -92.60004,90.9 -116.00004,93.7 -4.9,0.6 -5.8,0.4 -7.8,-1.6 -1.7,-1.7 -2.1,-2.9 -1.6,-5.3 1.9,-9.5 16.4,-25.8 36.5,-41 24.6,-18.7 59.5,-41.7 63.3,-41.7 2.1,0 2.1,0.1 0.8,3.4 -1.4,3.8 0.6,3.3 4.7,-1.1 8.8,-9.3 27.90004,-41 40.50004,-67.3 14.8,-30.8 23.5,-55.1 52.7,-146.5 25.1,-78.9 37.1,-111.8 52.6,-144 23.4,-49 53.7,-90.8 97.4,-134.5 65.6,-65.5 141.6,-111.5 229.6,-138.8 34.6,-10.8 54.6,-15.4 88,-20.1 25.7,-3.7 37.4,-4.8 62,-5.7 l 18.9,-0.7 -16.4,-16.1 c -16.1,-15.7 -38.8,-35.4 -54.3,-47 l -7.7,-5.8 -5.7,0.6 c -11.9,1.5 -48.2,7.8 -58.3,10.2 -62.3,14.9 -139.1,49.5 -201,90.7 -56.5,37.7 -104.8,85.5 -140.7,139.2 -41.1,61.7 -63.8,126.4 -93.9,268.5 -14.6,69 -17.8,83.4 -22.4,102.5 -6.1,25 -6.9,27.2 -6.9,18.8 -0.1,-3.4 -0.6,-6.5 -1.1,-6.8 -3.7,-2.3 -49.30004,18.4 -95.50004,43.3 -89.5,48.2 -153.1,101.4 -174.1,145.6 -7.6,16.1 -9.1,28.5 -5.4,43.2 6.2,24.2 26.1,38.7 56.9,41.6 12.7,1.1 38,-0.1 56.1,-2.7 39.2,-5.7 76.2,-21.2 119.5,-50 51.40004,-34.2 92.90004,-76.2 132.70004,-134 19,-27.7 33.7,-53 72.8,-125.5 30,-55.7 42.2,-77.8 52.2,-94.3 15.2,-25.2 40.8,-61.8 56.9,-81.2 11.7,-14.1 47,-49.1 62.4,-61.9 31.3,-26 64.8,-47.7 94.5,-61.2 28.6,-13 49.8,-18.4 71.4,-18.4 22.6,0.1 34.4,5.1 40,17 1.7,3.7 2.1,6.3 2,15 -0.1,9.3 -0.4,11.5 -3.3,19.2 -8,21.3 -28.8,45.3 -59.6,68.4 -39.9,30.1 -144.9,93 -167.2,100.3 -7.7,2.5 -9.2,-0.4 -4.9,-9.6 5.3,-11.3 14.3,-18.1 52.6,-39.8 54.6,-31 75.9,-44.8 98.2,-64.2 16.4,-14.3 30.3,-30.5 36.5,-42.7 3.1,-6 3.7,-8.3 4,-15.1 0.5,-9.9 -1.3,-13.5 -8.5,-16.8 -5.9,-2.6 -20.6,-3.5 -30.6,-1.7 -9.6,1.7 -28.4,7.9 -39.8,13.2 -34.3,15.8 -57.8,32.8 -90.4,65.3 -34.5,34.3 -63.3,72.2 -88.4,116 -9.4,16.5 -43.7,84.8 -67,133.5 -19.1,40 -39.6,79.8 -48.2,93.6 -72.5,116.6 -206.20004,205.3 -321.50004,213.4 -38.4,2.6 -72,-4.7 -99.3,-21.6 -22.9,-14.1 -34,-33.7 -34,-59.9 0,-22.4 7.9,-42.5 26.4,-67.2 18.9,-25.3 38.5,-42 88.1,-74.8 41.3,-27.3 72.2,-45.2 121,-70 34,-17.2 51,-24.7 74.8,-33.1 13.00004,-4.5 18.80004,-7.1 20.40004,-8.8 2.4,-2.8 5.6,-15.2 7.8,-30.3 2.6,-18.1 3.3,-30.1 6.5,-115.3 0.6,-15.1 1.7,-35.4 2.6,-45 12.7,-148.4 74.1,-266.8 183,-353.2 28.4,-22.5 43.9,-32.9 76.9,-51.3 40.2,-22.5 82.7,-42 114.5,-52.5 14.3,-4.7 31.8,-11.5 33.3,-12.9 0.9,-0.9 -17.8,-9.9 -36.8,-17.8 -18.4,-7.6 -42.5,-16.3 -60,-21.7 -12.7,-3.8 -50.6,-13.6 -52.4,-13.6 -0.3,0 -2.4,0.9 -4.6,1.9 z" />
    <path
       style="opacity:1;fill:#000000;stroke:none;stroke-width:0.1;stop-opacity:1"
       inkscape:connector-curvature="0"
       id="path16"
       d="m 788.25716,414.0143 c -18.7,13.2 -44.8,34.5 -61.1,49.8 l -6.3,5.8 5,16.2 c 6.4,20.7 10.4,30.6 20.3,50.4 16.8,33.8 42.5,76.4 67.5,112 20.7,29.5 69,90.8 84.1,106.8 3,3.1 5.2,6 4.8,6.3 -2.4,2.5 -52.3,-43.3 -102.7,-94.3 -49.7,-50.2 -77.6,-82.7 -111.5,-130.1 -7.1,-10 -13.2,-18.2 -13.5,-18.2 -1.2,0 -31,38.8 -31,40.4 0,1.3 63.4,64.4 76.3,75.9 10.7,9.6 23.5,19.6 87.7,68.7 40.2,30.7 46,35.3 45.5,35.8 -1.9,1.9 -104.7,-60.6 -178,-108.3 -35.4,-23 -56.1,-35.5 -56.9,-34.3 -1.1,1.5 -9.8,15.7 -13.2,21.5 l -4.3,7.2 11.4,7 c 20.3,12.5 73.8,40 128,65.6 15.4,7.3 38.9,18.5 52.3,24.9 13.3,6.3 27.5,12.9 31.5,14.6 12.5,5.4 12.4,5.3 10.5,5.7 -6.1,1.4 -87.1,-27.2 -175.3,-62 -25.8,-10.2 -51.5,-20.4 -57,-22.7 -5.5,-2.3 -11,-4.6 -12.3,-5.1 -2.2,-0.8 -2.7,-0.2 -9.2,13.3 -3.9,7.9 -7,14.8 -7,15.4 0,2.1 35.2,14.2 78.4,27 12.2,3.6 49.3,13.9 82.6,23 78,21.3 126.9,35.4 138.5,39.8 l 4,1.6 -5,-0.6 c -9.4,-1.1 -146.2,-26.3 -178.5,-32.9 -77.7,-15.9 -86.3,-17.5 -123.7,-22.8 l -9.2,-1.4 -1.1,3.1 c -4.7,13.2 -10,29.1 -10,30.1 0,0.8 2.7,1.7 7.2,2.3 18.9,2.8 102.2,12.9 154.8,18.7 86.5,9.6 192,24.1 193.6,26.6 0.7,1.1 -0.3,1.1 -10.1,-0.1 -39.9,-4.7 -196.9,-10 -300.7,-10 h -54.6 l -2.1,8.7 c -2.9,12.8 -6.3,31.4 -5.8,31.9 0.2,0.2 8.5,0 18.3,-0.6 9.8,-0.5 30.3,-1.4 45.4,-2 15.1,-0.5 44.4,-1.7 65,-2.5 20.6,-0.8 56.6,-2.2 80,-3 23.4,-0.9 49.7,-2 58.5,-2.5 24.6,-1.5 114.5,-5.3 128.5,-5.4 13.7,-0.1 16.2,0.6 19.7,6 3.9,6 -0.8,7.5 -31.3,9.8 -80.8,6.2 -289.5,26.8 -330.9,32.7 -26.1,3.6 -56.8,9.2 -59.2,10.7 -0.8,0.5 -1.5,6.9 -2.2,18.6 -1.5,24.9 -1.5,28 0.4,27.2 2.5,-0.9 78.7,-16.1 108,-21.5 88.4,-16.3 154.8,-27.3 271.5,-45.1 37.3,-5.7 57.9,-9.5 59.3,-10.9 1.7,-1.7 -0.2,-7.6 -5.9,-18.7 -5.3,-10.4 -11.2,-20.3 -40.9,-68.9 -80.5,-131.9 -105,-200.3 -117,-326.9 -0.8,-8.7 -1.6,-16.1 -1.8,-16.3 -0.2,-0.2 -4.4,2.5 -9.3,6 z" />
    <path
       style="opacity:1;fill:#000000;stroke:none;stroke-width:0.1;stop-opacity:1"
       inkscape:connector-curvature="0"
       id="path18"
       d="m 1766.7572,749.2143 c -19,30.6 -59.5,74.9 -93.4,102 -54.6,43.8 -140.6,89.3 -252,133.2 -53.7,21.2 -72.9,28.4 -100,37.5 l -10,3.3 0.4,10 c 0.2,5.5 0.7,11 1.2,12.3 0.8,2 1.3,2.2 4.6,1.6 32.2,-5.6 164.5,-54.5 240.2,-88.8 84.2,-38.2 149.7,-76.7 194.6,-114.5 11.7,-9.9 34.7,-32.3 36.5,-35.5 1.1,-2.2 0.9,-4.5 -2.4,-18.8 -3.7,-15.7 -12.9,-49.5 -13.9,-50.4 -0.3,-0.3 -2.9,3.4 -5.8,8.1 z" />
    <path
       style="opacity:1;fill:#000000;stroke:none;stroke-width:0.1;stop-opacity:1"
       inkscape:connector-curvature="0"
       id="path20"
       d="m 1789.5572,870.7143 c -15.2,12 -56.9,39.3 -85.2,55.9 -25.7,15.1 -72.9,37.7 -112.7,54.2 -65.1,26.8 -137.7,51.7 -221.3,75.9 -35.7,10.3 -45.7,13.6 -49.1,16.2 -2.5,2 -2.6,2.5 -2,8.2 0.9,9.4 9.5,50.8 19.6,94.6 18,78 19.2,86.4 19.2,135 0.1,44.2 -1.9,63 -10.8,102 -4.7,20.3 -14,43.8 -30.5,77 -12.2,24.4 -29.9,56.5 -39.5,71.2 l -4.4,6.9 3.7,-0.7 c 17.7,-3 50.3,-11 71.2,-17.4 14.6,-4.5 46.2,-15.7 54.5,-19.4 l 5.3,-2.3 2.1,-12.9 c 5,-29.7 6.2,-47.7 6.2,-94 0,-51 -2.6,-75.2 -13.5,-124.2 -9.4,-42 -18.8,-69.8 -40,-118.5 -4.2,-9.8 -7.5,-18.1 -7.2,-18.4 0.3,-0.3 3.3,4.8 6.5,11.3 3.3,6.6 13.5,25.4 22.7,41.9 31.3,56.1 46.4,89 75.8,164.7 12,30.8 16.1,44.4 24.7,81.8 2.8,12.4 5.5,23.3 5.8,24.3 0.6,1.5 2.8,0.4 15.4,-7.5 14.8,-9.3 45.9,-31 47.8,-33.4 1.3,-1.4 -3.7,-11.8 -20.8,-43.4 -24.6,-45.6 -33.9,-61 -55,-90.1 -13.7,-19.1 -23.3,-31.9 -64.8,-86.9 -11,-14.6 -21.4,-28.6 -23.2,-31.3 l -3.3,-4.7 h 10 c 10,0 40.9,1.7 81.1,4.5 37.9,2.7 84.3,3.7 133.5,3.1 67.5,-1 127.1,-3.2 136.8,-5.2 3.1,-0.6 3.2,-0.8 10.7,-20.9 5.8,-15.7 6.5,-17.9 5.3,-17.2 -1.2,0.8 -46.6,6.1 -77.3,9.2 -60,5.8 -119.1,8.7 -238.5,11.6 -55,1.3 -69.6,1 -75.2,-1.8 -3.6,-1.8 -6.2,-4.7 -5.2,-5.8 1,-0.9 14.5,-2.3 37.5,-4 12,-0.8 28.4,-2 36.4,-2.6 129.2,-9.2 275.7,-27.3 326.4,-40.1 8.4,-2.1 9,-2.5 9.8,-5.3 2.6,-9.3 11.7,-45.9 11.5,-46.1 -0.2,-0.2 -3.7,0.8 -7.8,2.2 -17.4,6 -83.4,23 -119.4,30.9 -60.7,13.3 -105.9,20.6 -196.1,32 -77.9,9.8 -104.1,14.1 -110,18.1 -1.9,1.3 -3.6,2.4 -3.8,2.4 -0.7,0 -6.6,-15.5 -6.8,-18 -0.3,-2.3 0,-2.5 4.7,-2.7 17.8,-1.1 155.8,-27.2 224.2,-42.3 89.2,-19.8 169.8,-43.5 210.6,-62 l 11.5,-5.2 1.2,-9.6 c 1.2,-9.8 3.9,-40.5 3.5,-41 -0.1,-0.1 -6.7,2.9 -14.7,6.7 -20.6,9.9 -60,27.4 -74.4,33.2 -15.9,6.3 -48.7,17.4 -73.4,24.9 -50.3,15.2 -99,28.3 -247.5,66.5 -20.3,5.3 -40.6,10.5 -44.9,11.7 l -7.9,2.2 -2.8,-3.4 c -1.6,-1.9 -3.7,-5.4 -4.6,-7.8 l -1.7,-4.5 2.7,-2.3 c 3.7,-3.2 16.9,-7.3 59.7,-18.6 46.9,-12.3 117.8,-33.6 169.2,-50.9 103.5,-34.6 175.1,-64.9 224.6,-94.9 l 17.3,-10.5 -0.6,-13 c -0.6,-12.1 -3.4,-45.7 -3.8,-46.2 -0.2,-0.1 -4.2,2.9 -9,6.7 z" />
    <path
       style="opacity:1;fill:#000000;stroke:none;stroke-width:0.1;stop-opacity:1"
       inkscape:connector-curvature="0"
       id="path22"
       d="m 1397.5572,1194.6143 c -1.6,0.6 -0.7,2.3 7.4,12.6 23.2,30.2 47.2,56 101.3,108.9 40.4,39.7 60.9,61.1 77.1,80.8 5.3,6.5 10.1,11.8 10.5,11.8 1.2,0 34,-32.5 34,-33.7 0,-0.5 -2.1,-2.5 -4.7,-4.4 -2.7,-1.8 -17.6,-13.5 -33.3,-25.9 -15.7,-12.4 -43.1,-34 -61,-48 -45.2,-35.3 -70.1,-55.2 -69.6,-55.7 0.2,-0.3 14.3,7.8 31.3,18 81.8,48.9 157.7,91.5 160.9,90.3 2,-0.8 19.6,-24.8 18.8,-25.5 -0.5,-0.4 -3.8,-1.8 -7.4,-3 -9.2,-3.3 -78.3,-33 -111,-47.8 -31,-14 -75.2,-35.4 -74.6,-36.1 0.3,-0.2 26.3,8.2 57.8,18.6 75.6,25.2 107.5,35.1 139.6,43.6 l 13.1,3.4 5.9,-9.1 c 3.3,-5.1 7.1,-11.1 8.6,-13.4 l 2.6,-4.3 -2.2,-0.5 c -1.3,-0.2 -11.3,-2.1 -22.3,-4.1 -32,-5.7 -76.4,-15.2 -112.2,-24 -57.8,-14.2 -133.3,-36.4 -123.6,-36.4 0.6,0 15.8,2.9 33.9,6.5 92,18.4 189.8,31.5 234.4,31.5 h 8.6 l 6.7,-13.5 c 3.7,-7.4 6.7,-13.8 6.7,-14.3 0,-0.5 -10.5,-1.2 -23.2,-1.6 -75.3,-2.2 -119.3,-5.5 -245.3,-18.6 -69.8,-7.3 -66.6,-7 -68.8,-6.1 z" />
  </g>
</svg>
